<svg width="54" height="35" viewBox="0 0 54 35" fill="none" xmlns="http://www.w3.org/2000/svg">
<path d="M29.4843 4.59357L29.4835 4.59415L27.442 6.15578L26.5307 6.85289L25.6193 6.15578L23.5778 4.59415L23.5759 4.5927C18.8424 0.95992 11.0703 0.387996 5.9545 3.62362L29.4843 4.59357ZM29.4843 4.59357C34.2292 0.959271 41.9916 0.388348 47.1068 3.62362C50.0221 5.47066 51.4111 7.94487 51.5483 10.3102C51.6854 12.6715 50.5912 15.1839 48.013 17.159L48.0127 17.1592M29.4843 4.59357L48.0127 17.1592M48.0127 17.1592L27.9605 32.5291C27.9604 32.5291 27.9603 32.5292 27.9602 32.5293C27.2031 33.109 25.8479 33.109 25.0908 32.5293C25.0907 32.5292 25.0906 32.5291 25.0905 32.5291L5.03898 17.1598M48.0127 17.1592L5.03898 17.1598M5.03898 17.1598L5.03828 17.1592C2.46574 15.1847 1.37357 12.6726 1.51167 10.3109C1.65001 7.94508 3.0392 5.47081 5.95415 3.62384L5.03898 17.1598Z" stroke="#EC2633" stroke-width="3"/>
</svg>
